# xmcd
#
# Track frame offsets:
#	150
#	12545
#	24103
#	36722
#	47507
#	65366
#	77459
#	89991
#	103754
#	114222
#	127842
#	143864
#	154280
#	168841
#
# Disc length: 2424 seconds
#
# Revision: 0
# Processed by: cddbd v1.5.1PL0 Copyright (c) Steve Scherf et al.
# Submitted via: EasyCDDAExtractor 8.1.4.1
#
DISCID=b109760e
DTITLE=CONJUNTO REBELDE
DYEAR=1900
DGENRE=
TTITLE0=LA CARICATURA 
TTITLE1=SENTIMENTAL
TTITLE2=LE COMPRE LA MUERTE A MI HIJO
TTITLE3=EL ADIOS DE CARRASCO
TTITLE4=ZAPATEANDO EN LA SIERRA
TTITLE5=CUANDO TE VALLAS
TTITLE6=TU VESTIDO BLANCO
TTITLE7=AL PIE DE UN ARBOL
TTITLE8=VETE EN SILENCIO
TTITLE9=EL COYOTE COJO 
TTITLE10=LAS HIJAS DE DON SIMON
TTITLE11=QUE IRONIA
TTITLE12=PIDEME LA LUNA
TTITLE13=EL PACHANGUERO
EXTD=
EXTT0=
EXTT1=
EXTT2=
EXTT3=
EXTT4=
EXTT5=
EXTT6=
EXTT7=
EXTT8=
EXTT9=
EXTT10=
EXTT11=
EXTT12=
EXTT13=
PLAYORDER=
